<?xml version="1.0"?>
<svg xmlns="http://www.w3.org/2000/svg" height="16px" viewBox="0 0 372.44755 372" width="16px" class=""><g><path d="m228.65625 170.804688c3.125 3.125 8.1875 3.125 11.3125 0l77.578125-77.578126 1.3125 37.011719c.074219 2.125.992187 4.128907 2.546875 5.578125 1.554688 1.445313 3.621094 2.214844 5.746094 2.132813l37.589844-1.394531c4.414062-.160157 7.859374-3.871094 7.699218-8.285157l-4.234375-116.113281c-.152343-4.1875-3.511719-7.546875-7.699219-7.699219l-116.109374-4.230469c-4.40625-.1445308-8.101563 3.289063-8.285157 7.691407l-1.445312 37.539062c-.082031 2.125.6875 4.191407 2.132812 5.75 1.449219 1.558594 3.457031 2.472657 5.582031 2.550781l36.972657 1.296876-77.570313 77.570312c-3.125 3.125-3.125 8.191406 0 11.316406zm0 0" class="active-path" fill="#FFFFFF"/><path d="m170.671875 228.789062-26.867187-26.871093c-3.125-3.125-8.191407-3.125-11.316407 0l-77.578125 77.582031-1.320312-37.023438c-.074219-2.121093-.992188-4.128906-2.546875-5.574218-1.554688-1.445313-3.621094-2.214844-5.742188-2.136719l-37.59375 1.390625c-4.414062.164062-7.863281 3.871094-7.70312475 8.285156l4.22656275 116.113282c.15625 4.1875 3.515625 7.546874 7.703125 7.703124l116.105468 4.222657h.300782c4.292968 0 7.824218-3.394531 7.988281-7.6875l1.453125-37.53125c.078125-2.125-.6875-4.195313-2.136719-5.753907-1.445312-1.558593-3.457031-2.472656-5.582031-2.546874l-36.960938-1.289063 77.570313-77.570313c3.125-3.121093 3.125-8.1875 0-11.3125zm0 0" class="active-path" fill="#FFFFFF"/></g></svg>
