<svg aria-hidden="true" style="position: absolute; width: 0; height: 0; overflow: hidden;" version="1.1" xmlns="http://www.w3.org/2000/svg" xmlns:xlink="http://www.w3.org/1999/xlink">
<defs>
<symbol id="icon-profile" viewBox="0 0 32 32">
<path d="M16 0c-8.84 0-16 7.16-16 16s7.16 16 16 16 16-7.16 16-16-7.16-16-16-16zM16 4.8c2.648 0 4.8 2.152 4.8 4.8 0 2.656-2.152 4.8-4.8 4.8s-4.8-2.144-4.8-4.8c0-2.648 2.152-4.8 4.8-4.8zM16 27.52c-4.008 0-7.528-2.048-9.6-5.152 0.040-3.176 6.408-4.928 9.6-4.928s9.552 1.752 9.6 4.928c-2.072 3.104-5.592 5.152-9.6 5.152z"></path>
</symbol>
<symbol id="icon-help" viewBox="0 0 32 32">
<path d="M16.001 0c-8.834 0-16 7.157-16 15.992 0 8.843 7.166 16.008 16 16.008 8.838 0 15.999-7.166 15.999-16.008 0-8.834-7.16-15.992-15.999-15.992zM17.141 24.894c-0.372 0.331-0.802 0.497-1.29 0.497-0.505 0-0.945-0.163-1.321-0.49s-0.565-0.784-0.565-1.371c0-0.521 0.182-0.959 0.546-1.315s0.81-0.533 1.34-0.533c0.521 0 0.959 0.178 1.315 0.533s0.534 0.794 0.534 1.315c-0.001 0.579-0.187 1.034-0.559 1.364zM21.774 13.407c-0.285 0.529-0.625 0.986-1.018 1.371-0.392 0.385-1.097 1.032-2.115 1.941-0.281 0.257-0.507 0.482-0.676 0.676s-0.296 0.372-0.378 0.534c-0.083 0.161-0.147 0.323-0.192 0.484s-0.113 0.445-0.205 0.85c-0.157 0.86-0.649 1.29-1.476 1.29-0.43 0-0.791-0.14-1.086-0.422-0.293-0.281-0.44-0.699-0.44-1.253 0-0.694 0.108-1.296 0.323-1.805 0.214-0.509 0.5-0.955 0.855-1.34s0.835-0.841 1.44-1.371c0.529-0.463 0.912-0.813 1.147-1.048s0.434-0.499 0.595-0.788c0.162-0.29 0.242-0.604 0.242-0.943 0-0.662-0.245-1.22-0.738-1.674s-1.127-0.682-1.905-0.682c-0.91 0-1.58 0.229-2.010 0.688s-0.793 1.135-1.091 2.028c-0.282 0.935-0.816 1.402-1.6 1.402-0.463 0-0.854-0.163-1.173-0.49s-0.477-0.68-0.477-1.061c0-0.785 0.252-1.582 0.757-2.388s1.241-1.474 2.209-2.003c0.967-0.529 2.097-0.795 3.386-0.795 1.199 0 2.258 0.222 3.175 0.664s1.627 1.044 2.128 1.805c0.5 0.761 0.75 1.588 0.75 2.481 0.001 0.702-0.142 1.318-0.427 1.847z"></path>
</symbol>
<symbol id="icon-setup" viewBox="0 0 32 32">
<path d="M30.306 12.525l-2.507-0.319c-0.207-0.636-0.461-1.249-0.759-1.832l1.548-1.993c0.627-0.807 0.553-1.945-0.163-2.639l-2.1-2.1c-0.7-0.723-1.839-0.795-2.646-0.169l-1.991 1.548c-0.583-0.297-1.196-0.552-1.834-0.759l-0.319-2.503c-0.12-1.004-0.972-1.76-1.981-1.76h-2.987c-1.009 0-1.861 0.756-1.981 1.756l-0.319 2.507c-0.637 0.207-1.251 0.46-1.833 0.759l-1.992-1.548c-0.805-0.625-1.944-0.553-2.639 0.163l-2.1 2.099c-0.723 0.701-0.796 1.84-0.169 2.648l1.548 1.992c-0.299 0.583-0.552 1.196-0.759 1.832l-2.503 0.319c-1.004 0.12-1.76 0.972-1.76 1.981v2.987c0 1.009 0.756 1.861 1.756 1.981l2.507 0.319c0.207 0.636 0.461 1.25 0.759 1.832l-1.548 1.993c-0.627 0.807-0.553 1.945 0.163 2.639l2.1 2.1c0.701 0.721 1.839 0.793 2.646 0.168l1.992-1.548c0.583 0.299 1.196 0.553 1.832 0.759l0.319 2.501c0.12 1.007 0.972 1.763 1.981 1.763h2.987c1.009 0 1.861-0.756 1.981-1.756l0.319-2.507c0.636-0.207 1.25-0.461 1.832-0.759l1.993 1.548c0.807 0.627 1.945 0.553 2.639-0.163l2.1-2.1c0.723-0.701 0.796-1.839 0.169-2.646l-1.548-1.992c0.299-0.583 0.553-1.196 0.759-1.832l2.501-0.319c1.004-0.12 1.76-0.972 1.76-1.981v-2.987c0.001-1.009-0.755-1.861-1.755-1.981zM16.063 22.667c-3.676 0-6.667-2.991-6.667-6.667s2.991-6.667 6.667-6.667 6.667 2.991 6.667 6.667-2.991 6.667-6.667 6.667z"></path>
</symbol>
<symbol id="icon-external" viewBox="0 0 375 375">
<g><polygon points="337.5,187.5 337.5,337.5 37.5,337.5 37.5,37.5 187.5,37.5 187.5,0 0,0 0,375 375,375 375,187.5 "/></g><g><polygon points="225,0 279,54 172.7,160.3 214.7,202.3 321,96 375,150 375,0 "/></g>
</symbol>
<symbol id="icon-maximize" viewBox="0 0 375 375">
<g><path d="M0,0v375h375V0H0z M337.5,337.5h-300v-300h300V337.5z"/></g>
</symbol>
<symbol id="icon-restore" viewBox="0 0 375.1 375.1">
<path d="M281.35,93.8V0H0.05v281.3h93.7v93.8h281.3V93.8H281.35z M37.55,243.8V37.5h206.3v206.3H37.55z M337.55,337.5h-206.2 v-56.3h150v-150h56.2V337.5z"/>
</symbol>
</defs>
</svg>